<?xml version="1.0" encoding="utf-8"?>
<!-- Generator: Adobe Illustrator 27.1.0, SVG Export Plug-In . SVG Version: 6.00 Build 0)  -->
<svg version="1.1" id="Layer_1" xmlns="http://www.w3.org/2000/svg" xmlns:xlink="http://www.w3.org/1999/xlink" x="0px" y="0px"
	 viewBox="0 0 512.08 512.08" style="enable-background:new 0 0 512.08 512.08;" xml:space="preserve">
<style type="text/css">
	.st0{fill:#563D7C;}
	.st1{fill:#FFFFFF;}
</style>
<g>
	<path class="st0" d="M0,446.05c0,36.47,29.56,66.03,66.03,66.03h380.02c36.47,0,66.03-29.56,66.03-66.03V66.03
		C512.08,29.56,482.52,0,446.05,0H66.03C29.56,0,0,29.56,0,66.03V446.05L0,446.05z"/>
	<path class="st1" d="M212.35,226.51v-72.52h63.83c6.08,0,11.94,0.51,17.59,1.52c5.64,1.01,10.64,2.82,14.98,5.43
		c4.34,2.61,7.82,6.22,10.42,10.86c2.6,4.63,3.91,10.57,3.91,17.8c0,13.03-3.91,22.44-11.73,28.23s-17.8,8.69-29.96,8.69
		L212.35,226.51L212.35,226.51z M144.17,101.02v310.05h150.25c13.9,0,27.43-1.74,40.6-5.21s24.9-8.83,35.17-16.07
		c10.28-7.24,18.45-16.57,24.53-28.01s9.12-24.97,9.12-40.6c0-19.4-4.7-35.97-14.11-49.72c-9.41-13.75-23.67-23.38-42.77-28.88
		c13.9-6.66,24.39-15.2,31.48-25.62s10.64-23.45,10.64-39.08c0-14.47-2.39-26.63-7.17-36.48c-4.78-9.84-11.51-17.73-20.19-23.67
		c-8.68-5.93-19.1-10.21-31.26-12.81c-12.16-2.61-25.62-3.91-40.38-3.91L144.17,101.02L144.17,101.02z M212.35,358.08v-85.11h74.25
		c14.76,0,26.63,3.4,35.61,10.21c8.97,6.8,13.46,18.16,13.46,34.09c0,8.11-1.38,14.76-4.13,19.98c-2.75,5.21-6.44,9.34-11.07,12.38
		s-9.99,5.21-16.07,6.52c-6.08,1.3-12.45,1.95-19.11,1.95h-72.94V358.08z"/>
</g>
</svg>
