<?xml version="1.0" encoding="utf-8"?>
<!-- Generator: Adobe Illustrator 27.1.0, SVG Export Plug-In . SVG Version: 6.00 Build 0)  -->
<svg version="1.1" id="Layer_1" xmlns="http://www.w3.org/2000/svg" xmlns:xlink="http://www.w3.org/1999/xlink" x="0px" y="0px"
	 viewBox="0 0 451.02 512.08" style="enable-background:new 0 0 451.02 512.08;" xml:space="preserve">
<style type="text/css">
	.st0{fill:#E34F26;}
	.st1{fill:#EF652A;}
	.st2{fill:#EBEBEB;}
	.st3{fill:#FFFFFF;}
</style>
<g>
	<path class="st0" d="M41,460.07L0,0h451.02l-41,460.07l-185.01,52.01"/>
	<path class="st1" d="M226.01,472.07l149.01-41.01l35-394.06H226.01"/>
	<path class="st2" d="M226.01,208.03h-75l-5-58.01h80V94.01h-1H84l1,15l14,156.02h127.01L226.01,208.03L226.01,208.03z
		 M226.01,355.05h-1l-63-17l-4-45.01h-30h-26l7,89.01l116.01,32h1L226.01,355.05L226.01,355.05z"/>
	<path class="st3" d="M225.01,208.03v57.01h70l-7,73.01l-63,17v59.01l116.01-32l1-10l13-149.02l2-15h-16H225.01V208.03z
		 M225.01,94.01v35.01v21l0,0h137.01l0,0l0,0l1-12l3-29l1-15H225.01V94.01z"/>
</g>
</svg>
