<?xml version="1.0" encoding="utf-8"?>
<!-- Generator: Adobe Illustrator 27.1.0, SVG Export Plug-In . SVG Version: 6.00 Build 0)  -->
<svg version="1.1" id="Layer_1" xmlns="http://www.w3.org/2000/svg" xmlns:xlink="http://www.w3.org/1999/xlink" x="0px" y="0px"
	 viewBox="0 0 525.21 512.08" style="enable-background:new 0 0 525.21 512.08;" xml:space="preserve">
<style type="text/css">
	.st0{fill:#330000;}
	.st1{fill:#FF9A00;}
</style>
<g>
	<path class="st0" d="M93.01,0h339.2c51.43,0,93.01,41.58,93.01,93.01v326.07c0,51.43-41.58,93.01-93.01,93.01H93.01
		C41.58,512.08,0,470.5,0,419.07V93.01C0,41.58,41.58,0,93.01,0z"/>
	<g>
		<path class="st1" d="M253.85,306.37h-81.41l-16.63,51.43c-0.44,1.97-2.19,3.28-4.16,3.06h-41.14c-2.41,0-3.06-1.31-2.41-3.94
			l70.47-202.86c0.66-2.19,1.31-4.6,2.19-7.22c0.88-4.6,1.31-9.41,1.31-14.22c-0.22-1.09,0.66-2.19,1.75-2.41h56.68
			c1.75,0,2.63,0.66,2.84,1.75l79.88,225.4c0.66,2.41,0,3.5-2.19,3.5H275.3c-1.53,0.22-3.06-0.88-3.5-2.41L253.85,306.37z
			 M185.14,261.95h55.58c-1.31-4.6-3.06-10.07-5.03-15.76c-1.97-5.91-3.94-12.25-5.91-18.82c-2.19-6.78-4.16-13.35-6.35-20.13
			s-4.16-13.13-5.91-19.48c-1.75-6.13-3.28-11.82-4.81-17.07h-0.44c-1.97,9.41-4.38,18.82-7.44,28.23
			c-3.28,10.5-6.57,21.45-10.07,32.39C191.7,242.47,188.42,252.76,185.14,261.95L185.14,261.95z M372.02,168.5
			c-7.22,0.22-14.22-2.63-19.48-7.66c-5.03-5.47-7.66-12.69-7.44-20.13c-0.22-7.44,2.63-14.44,7.88-19.48s12.25-7.66,19.48-7.66
			c8.53,0,15.1,2.63,19.91,7.66c4.81,5.25,7.44,12.25,7.22,19.48c0.22,7.44-2.41,14.66-7.66,20.13
			C386.9,166.1,379.46,168.94,372.02,168.5L372.02,168.5z M347.51,358.45v-168.5c0-2.19,0.88-3.06,2.84-3.06h43.33
			c1.97,0,2.84,1.09,2.84,3.06v168.5c0,2.41-0.88,3.5-2.84,3.5H350.8C348.61,361.96,347.51,360.64,347.51,358.45z"/>
	</g>
</g>
</svg>
