<?xml version="1.0" encoding="utf-8"?>
<!-- Generator: Adobe Illustrator 27.1.0, SVG Export Plug-In . SVG Version: 6.00 Build 0)  -->
<svg version="1.1" id="Layer_1" xmlns="http://www.w3.org/2000/svg" xmlns:xlink="http://www.w3.org/1999/xlink" x="0px" y="0px"
	 viewBox="0 0 525.21 512.08" style="enable-background:new 0 0 525.21 512.08;" xml:space="preserve">
<style type="text/css">
	.st0{fill:#49021F;}
	.st1{fill:#FF3366;}
</style>
<g>
	<path class="st0" d="M93.01,0h339.2c51.43,0,93.01,41.58,93.01,93.01v326.07c0,51.43-41.58,93.01-93.01,93.01H93.01
		C41.58,512.08,0,470.5,0,419.07V93.01C0,41.58,41.58,0,93.01,0z"/>
	<g>
		<path class="st1" d="M190.83,133.93v225.4c0,2.41-1.09,3.5-3.06,3.5h-42.89c-1.97,0-2.84-1.09-2.84-3.5v-225.4
			c0-1.97,1.09-2.84,3.06-2.84h42.67c1.31-0.22,2.63,0.66,2.84,2.19C190.83,133.49,190.83,133.71,190.83,133.93L190.83,133.93z
			 M317.31,365.46c-16.19,0.22-32.39-3.06-47.05-9.85c-13.79-6.35-25.17-16.85-33.04-29.76c-8.1-13.35-12.04-29.98-12.04-49.89
			c-0.22-16.19,3.94-32.17,12.04-46.17c8.32-14.22,20.35-26.04,34.8-33.92c15.32-8.53,33.7-12.69,55.37-12.69
			c1.09,0,2.63,0,4.6,0.22s4.16,0.22,6.78,0.44v-69.15c0-1.53,0.66-2.41,2.19-2.41h44.42c1.09-0.22,1.97,0.66,2.19,1.53v208.77
			c0,3.94,0.22,8.32,0.44,13.13c0.44,4.6,0.66,8.97,0.88,12.69c0,1.53-0.66,2.84-2.19,3.5c-11.38,4.81-23.42,8.32-35.67,10.5
			C340.07,364.36,328.69,365.46,317.31,365.46L317.31,365.46z M338.76,321.69V225.4c-1.97-0.44-3.94-0.88-5.91-1.09
			c-2.41-0.22-4.81-0.44-7.22-0.44c-8.53,0-17.07,1.75-24.73,5.69c-7.44,3.72-13.79,9.19-18.6,16.19s-7.22,16.41-7.22,27.79
			c-0.22,7.66,1.09,15.32,3.72,22.54c2.19,5.91,5.47,11.16,9.85,15.54c4.16,3.94,9.19,7,14.88,8.75c5.91,1.97,12.04,2.84,18.16,2.84
			c3.28,0,6.35-0.22,9.19-0.44C333.73,323,336.35,322.57,338.76,321.69L338.76,321.69z"/>
	</g>
</g>
</svg>
