<?xml version="1.0" encoding="utf-8"?>
<!-- Generator: Adobe Illustrator 27.1.0, SVG Export Plug-In . SVG Version: 6.00 Build 0)  -->
<svg version="1.1" id="Layer_1" xmlns="http://www.w3.org/2000/svg" xmlns:xlink="http://www.w3.org/1999/xlink" x="0px" y="0px"
	 viewBox="0 0 600 600" style="enable-background:new 0 0 600 600;" xml:space="preserve">
<style type="text/css">
	.st0{fill:#00FFAB;}
</style>
<g>
	<rect x="169.2" y="225.3" class="st0" width="56.1" height="205.5"/>
	<path class="st0" d="M318.7,258.2v-33h-56.1v205.5h56.1V326.1c0-58.2,74.7-62.9,74.7,0v104.7h56.1V304.5
		C449.5,206.3,344.8,209.9,318.7,258.2z"/>
	<ellipse class="st0" cx="197.2" cy="168.6" rx="32.7" ry="33"/>
	<path class="st0" d="M300,0C134.3,0,0,134.3,0,300s134.3,300,300,300s300-134.3,300-300S465.7,0,300,0z M430.8,524.2H169.2
		c-51.6,0-93.4-41.8-93.4-93.4V169.2c0-51.6,41.8-93.4,93.4-93.4h261.6c51.6,0,93.4,41.8,93.4,93.4v261.6
		C524.2,482.4,482.4,524.2,430.8,524.2z"/>
</g>
</svg>
