<?xml version="1.0" encoding="utf-8"?>
<!-- Generator: Adobe Illustrator 27.1.0, SVG Export Plug-In . SVG Version: 6.00 Build 0)  -->
<svg version="1.1" id="Layer_1" xmlns="http://www.w3.org/2000/svg" xmlns:xlink="http://www.w3.org/1999/xlink" x="0px" y="0px"
	 viewBox="0 0 525.21 512.08" style="enable-background:new 0 0 525.21 512.08;" xml:space="preserve">
<style type="text/css">
	.st0{fill:#001E36;}
	.st1{fill:#31A8FF;}
</style>
<g>
	<path class="st0" d="M93.01,0h339.2c51.43,0,93.01,41.58,93.01,93.01v326.07c0,51.43-41.58,93.01-93.01,93.01H93.01
		C41.58,512.08,0,470.5,0,419.07V93.01C0,41.58,41.58,0,93.01,0z"/>
	<g>
		<path class="st1" d="M118.17,359.11V133.93c0-1.53,0.66-2.41,2.19-2.41c3.72,0,7.22,0,12.25-0.22c5.25-0.22,10.72-0.22,16.63-0.44
			c5.91-0.22,12.25-0.22,19.04-0.44c6.78-0.22,13.35-0.22,19.91-0.22c17.94,0,32.83,2.19,45.08,6.78
			c10.94,3.72,21.01,9.85,29.32,17.94c7,7,12.47,15.54,15.98,24.95c3.28,9.19,5.03,18.6,5.03,28.45c0,18.82-4.38,34.36-13.13,46.61
			c-8.75,12.25-21.01,21.45-35.23,26.7c-14.88,5.47-31.29,7.44-49.24,7.44c-5.25,0-8.75,0-10.94-0.22
			c-2.19-0.22-5.25-0.22-9.41-0.22v70.25c0.22,1.53-0.88,2.84-2.41,3.06H120.8C119.05,361.96,118.17,361.08,118.17,359.11
			L118.17,359.11z M165.88,173.76v73.53c3.06,0.22,5.91,0.44,8.53,0.44h11.6c8.53,0,17.07-1.31,25.17-3.94
			c7-1.97,13.13-6.13,17.94-11.6c4.6-5.47,6.78-12.91,6.78-22.54c0.22-6.78-1.53-13.57-5.03-19.48
			c-3.72-5.69-8.97-10.07-15.32-12.47c-8.1-3.28-16.85-4.6-25.82-4.38c-5.69,0-10.72,0-14.88,0.22
			C170.47,173.32,167.41,173.54,165.88,173.76L165.88,173.76z M420.17,233.94c-6.57-3.5-13.57-5.91-21.01-7.44
			c-8.1-1.75-16.19-2.84-24.51-2.84c-4.38-0.22-8.97,0.44-13.13,1.53c-2.84,0.66-5.25,2.19-6.78,4.38
			c-1.09,1.75-1.75,3.94-1.75,5.91c0,1.97,0.88,3.94,2.19,5.69c1.97,2.41,4.6,4.38,7.44,5.91c5.03,2.63,10.29,5.03,15.54,7.22
			c11.82,3.94,23.2,9.41,33.7,15.98c7.22,4.6,13.13,10.72,17.29,18.16c3.5,7,5.25,14.66,5.03,22.54
			c0.22,10.29-2.84,20.57-8.53,29.11c-6.13,8.75-14.66,15.54-24.51,19.48c-10.72,4.6-23.85,7-39.61,7
			c-10.07,0-19.91-0.88-29.76-2.84c-7.66-1.31-15.32-3.72-22.32-7c-1.53-0.88-2.63-2.41-2.41-4.16v-38.08
			c0-0.66,0.22-1.53,0.88-1.97c0.66-0.44,1.31-0.22,1.97,0.22c8.53,5.03,17.51,8.53,27.14,10.72c8.32,2.19,17.07,3.28,25.82,3.28
			c8.32,0,14.22-1.09,18.16-3.06c3.5-1.53,5.91-5.25,5.91-9.19c0-3.06-1.75-5.91-5.25-8.75s-10.72-6.13-21.45-10.29
			c-11.16-3.94-21.45-9.19-31.07-15.76c-6.78-4.81-12.47-11.16-16.63-18.6c-3.5-7-5.25-14.66-5.03-22.32
			c0-9.41,2.63-18.38,7.44-26.48c5.47-8.75,13.57-15.76,22.98-20.13c10.29-5.25,23.2-7.66,38.73-7.66c8.97,0,18.16,0.66,27.14,1.97
			c6.57,0.88,12.91,2.63,18.82,5.03c0.88,0.22,1.75,1.09,2.19,1.97c0.22,0.88,0.44,1.75,0.44,2.63v35.67c0,0.88-0.44,1.75-1.09,2.19
			C422.14,234.37,421.04,234.37,420.17,233.94L420.17,233.94z"/>
	</g>
</g>
</svg>
